<mxfile modified="2023-11-21T19:20:02.186Z" host="app.diagrams.net" agent="Mozilla/5.0 (Macintosh; Intel Mac OS X 10_15_7) AppleWebKit/537.36 (KHTML, like Gecko) Chrome/116.0.0.0 Safari/537.36" etag="XHRjvekokUtXmKn2I_PG" version="22.1.3" type="device">
  <diagram id="Ht1M8jgEwFfnCIfOTk4-" name="Page-1">
    <mxGraphModel dx="984" dy="1536" grid="1" gridSize="10" guides="1" tooltips="1" connect="1" arrows="1" fold="1" page="1" pageScale="1" pageWidth="1169" pageHeight="827" background="#ffffff" math="0" shadow="0">
      <root>
        <mxCell id="0" />
        <mxCell id="1" parent="0" />
        <mxCell id="KYEmgtriEI6HAVW3Ymfa-75" value="" style="rounded=0;whiteSpace=wrap;html=1;strokeColor=none;fontColor=#EEEEEE;fillColor=none;" vertex="1" parent="1">
          <mxGeometry x="50" y="-820" width="1040" height="590" as="geometry" />
        </mxCell>
        <mxCell id="KYEmgtriEI6HAVW3Ymfa-74" value="" style="group" vertex="1" connectable="0" parent="1">
          <mxGeometry x="112" y="-750" width="960" height="440" as="geometry" />
        </mxCell>
        <mxCell id="KYEmgtriEI6HAVW3Ymfa-48" value="" style="rounded=1;whiteSpace=wrap;html=1;strokeColor=#274A59;fontColor=#EEEEEE;fillColor=none;labelBackgroundColor=default;strokeWidth=1;" vertex="1" parent="KYEmgtriEI6HAVW3Ymfa-74">
          <mxGeometry x="160" width="800" height="440" as="geometry" />
        </mxCell>
        <mxCell id="KYEmgtriEI6HAVW3Ymfa-50" value="" style="rounded=1;whiteSpace=wrap;html=1;strokeColor=#274A59;fontColor=#EEEEEE;fillColor=none;labelBackgroundColor=default;strokeWidth=2;dashed=1;" vertex="1" parent="KYEmgtriEI6HAVW3Ymfa-74">
          <mxGeometry x="170" y="80" width="550" height="338" as="geometry" />
        </mxCell>
        <mxCell id="KYEmgtriEI6HAVW3Ymfa-57" value="" style="rounded=1;whiteSpace=wrap;html=1;strokeColor=#274A59;fontColor=#EEEEEE;fillColor=none;labelBackgroundColor=default;strokeWidth=1;dashed=1;" vertex="1" parent="KYEmgtriEI6HAVW3Ymfa-74">
          <mxGeometry x="545" y="100" width="160" height="210" as="geometry" />
        </mxCell>
        <mxCell id="KYEmgtriEI6HAVW3Ymfa-62" style="edgeStyle=orthogonalEdgeStyle;rounded=0;orthogonalLoop=1;jettySize=auto;html=1;exitX=1;exitY=0.25;exitDx=0;exitDy=0;entryX=0;entryY=0.25;entryDx=0;entryDy=0;strokeColor=#0B4D6A;" edge="1" parent="KYEmgtriEI6HAVW3Ymfa-74" source="KYEmgtriEI6HAVW3Ymfa-56" target="KYEmgtriEI6HAVW3Ymfa-57">
          <mxGeometry relative="1" as="geometry" />
        </mxCell>
        <mxCell id="KYEmgtriEI6HAVW3Ymfa-63" style="edgeStyle=orthogonalEdgeStyle;rounded=0;orthogonalLoop=1;jettySize=auto;html=1;exitX=1;exitY=0.75;exitDx=0;exitDy=0;entryX=0;entryY=0.75;entryDx=0;entryDy=0;strokeColor=#0B4D6A;" edge="1" parent="KYEmgtriEI6HAVW3Ymfa-74" source="KYEmgtriEI6HAVW3Ymfa-56" target="KYEmgtriEI6HAVW3Ymfa-57">
          <mxGeometry relative="1" as="geometry" />
        </mxCell>
        <mxCell id="KYEmgtriEI6HAVW3Ymfa-56" value="" style="rounded=1;whiteSpace=wrap;html=1;strokeColor=#274A59;fontColor=#EEEEEE;fillColor=none;labelBackgroundColor=default;strokeWidth=1;dashed=1;" vertex="1" parent="KYEmgtriEI6HAVW3Ymfa-74">
          <mxGeometry x="365" y="100" width="160" height="210" as="geometry" />
        </mxCell>
        <mxCell id="KYEmgtriEI6HAVW3Ymfa-61" style="edgeStyle=orthogonalEdgeStyle;rounded=0;orthogonalLoop=1;jettySize=auto;html=1;exitX=1;exitY=0.25;exitDx=0;exitDy=0;entryX=0;entryY=0.25;entryDx=0;entryDy=0;strokeColor=#0B4D6A;" edge="1" parent="KYEmgtriEI6HAVW3Ymfa-74" source="KYEmgtriEI6HAVW3Ymfa-55" target="KYEmgtriEI6HAVW3Ymfa-56">
          <mxGeometry relative="1" as="geometry" />
        </mxCell>
        <mxCell id="KYEmgtriEI6HAVW3Ymfa-64" style="edgeStyle=orthogonalEdgeStyle;rounded=0;orthogonalLoop=1;jettySize=auto;html=1;exitX=1;exitY=0.75;exitDx=0;exitDy=0;entryX=0;entryY=0.75;entryDx=0;entryDy=0;strokeColor=#0B4D6A;" edge="1" parent="KYEmgtriEI6HAVW3Ymfa-74" source="KYEmgtriEI6HAVW3Ymfa-55" target="KYEmgtriEI6HAVW3Ymfa-56">
          <mxGeometry relative="1" as="geometry" />
        </mxCell>
        <mxCell id="KYEmgtriEI6HAVW3Ymfa-55" value="" style="rounded=1;whiteSpace=wrap;html=1;strokeColor=#274A59;fontColor=#EEEEEE;fillColor=none;labelBackgroundColor=default;strokeWidth=1;dashed=1;" vertex="1" parent="KYEmgtriEI6HAVW3Ymfa-74">
          <mxGeometry x="185" y="100" width="160" height="210" as="geometry" />
        </mxCell>
        <mxCell id="KYEmgtriEI6HAVW3Ymfa-51" value="" style="rounded=1;whiteSpace=wrap;html=1;strokeColor=#274A59;fontColor=#EEEEEE;fillColor=none;labelBackgroundColor=default;strokeWidth=1;" vertex="1" parent="KYEmgtriEI6HAVW3Ymfa-74">
          <mxGeometry y="30" width="140" height="290" as="geometry" />
        </mxCell>
        <mxCell id="KYEmgtriEI6HAVW3Ymfa-5" value="Web Service (mvideo.ru)" style="fontColor=#396C82;verticalAlign=top;verticalLabelPosition=bottom;labelPosition=center;align=center;html=1;outlineConnect=0;fillColor=#09555B;strokeColor=#BAC8D3;gradientDirection=north;strokeWidth=2;shape=mxgraph.networks.web_server;labelBackgroundColor=none;" vertex="1" parent="KYEmgtriEI6HAVW3Ymfa-74">
          <mxGeometry x="17.5" y="117" width="105" height="105" as="geometry" />
        </mxCell>
        <mxCell id="KYEmgtriEI6HAVW3Ymfa-46" value="" style="rounded=1;whiteSpace=wrap;html=1;strokeColor=#274A59;fontColor=#EEEEEE;fillColor=none;labelBackgroundColor=default;strokeWidth=2;dashed=1;" vertex="1" parent="KYEmgtriEI6HAVW3Ymfa-74">
          <mxGeometry x="740" y="26" width="200" height="132" as="geometry" />
        </mxCell>
        <mxCell id="UEzPUAAOIrF-is8g5C7q-168" style="edgeStyle=orthogonalEdgeStyle;rounded=0;orthogonalLoop=1;jettySize=auto;html=1;startArrow=none;startFill=0;endArrow=open;endFill=0;strokeColor=#0B4D6A;strokeWidth=2;labelBackgroundColor=none;fontColor=default;" parent="KYEmgtriEI6HAVW3Ymfa-74" edge="1">
          <mxGeometry relative="1" as="geometry">
            <Array as="points">
              <mxPoint x="840" y="233" />
            </Array>
            <mxPoint x="722.96" y="233" as="sourcePoint" />
            <mxPoint x="840.25" y="163" as="targetPoint" />
          </mxGeometry>
        </mxCell>
        <mxCell id="KYEmgtriEI6HAVW3Ymfa-31" value="" style="shape=image;imageAspect=0;aspect=fixed;verticalLabelPosition=bottom;verticalAlign=top;image=https://upload.wikimedia.org/wikipedia/commons/thumb/4/40/Yandex_Cloud_logo.svg/2560px-Yandex_Cloud_logo.svg.png;labelBackgroundColor=none;fillColor=#09555B;strokeColor=#BAC8D3;fontColor=#EEEEEE;" vertex="1" parent="KYEmgtriEI6HAVW3Ymfa-74">
          <mxGeometry x="200" y="16" width="266.66" height="40" as="geometry" />
        </mxCell>
        <mxCell id="KYEmgtriEI6HAVW3Ymfa-32" value="" style="shape=image;imageAspect=0;aspect=fixed;verticalLabelPosition=bottom;verticalAlign=top;image=https://freedommatters.in/content/images/2020/11/image-18.png;labelBackgroundColor=none;fillColor=#09555B;strokeColor=#BAC8D3;fontColor=#396C82;" vertex="1" parent="KYEmgtriEI6HAVW3Ymfa-74">
          <mxGeometry x="746.87" y="101.97000000000003" width="186.27" height="48" as="geometry" />
        </mxCell>
        <mxCell id="KYEmgtriEI6HAVW3Ymfa-41" value="CSV" style="sketch=0;aspect=fixed;pointerEvents=1;shadow=0;dashed=0;html=1;strokeColor=none;labelPosition=center;verticalLabelPosition=bottom;verticalAlign=top;align=center;fillColor=#09555B;shape=mxgraph.azure.file;fontColor=#396C82;labelBackgroundColor=none;" vertex="1" parent="KYEmgtriEI6HAVW3Ymfa-74">
          <mxGeometry x="260" y="218.79999999999995" width="47" height="50" as="geometry" />
        </mxCell>
        <mxCell id="KYEmgtriEI6HAVW3Ymfa-42" value="VM Airflow" style="sketch=0;aspect=fixed;pointerEvents=1;shadow=0;dashed=0;html=1;strokeColor=none;labelPosition=center;verticalLabelPosition=bottom;verticalAlign=top;align=center;fillColor=#09555B;shape=mxgraph.azure.virtual_machine_feature;fontColor=#396C82;labelBackgroundColor=none;" vertex="1" parent="KYEmgtriEI6HAVW3Ymfa-74">
          <mxGeometry x="389" y="340" width="50" height="45" as="geometry" />
        </mxCell>
        <mxCell id="KYEmgtriEI6HAVW3Ymfa-40" value="VS Code (SSH)" style="sketch=0;aspect=fixed;pointerEvents=1;shadow=0;dashed=0;html=1;strokeColor=none;labelPosition=center;verticalLabelPosition=bottom;verticalAlign=top;align=center;fillColor=#09555B;shape=mxgraph.mscae.enterprise.code_file;fontColor=#396C82;labelBackgroundColor=none;" vertex="1" parent="KYEmgtriEI6HAVW3Ymfa-74">
          <mxGeometry x="506" y="337" width="49" height="50" as="geometry" />
        </mxCell>
        <mxCell id="KYEmgtriEI6HAVW3Ymfa-45" value="" style="sketch=0;pointerEvents=1;shadow=0;dashed=0;html=1;strokeColor=none;labelPosition=center;verticalLabelPosition=bottom;verticalAlign=top;align=center;fillColor=#09555B;shape=mxgraph.mscae.oms.dashboard;fontColor=#396C82;labelBackgroundColor=none;" vertex="1" parent="KYEmgtriEI6HAVW3Ymfa-74">
          <mxGeometry x="810" y="56" width="60" height="40" as="geometry" />
        </mxCell>
        <mxCell id="KYEmgtriEI6HAVW3Ymfa-8" value="REST API" style="sketch=0;aspect=fixed;pointerEvents=1;shadow=0;dashed=0;html=1;strokeColor=none;labelPosition=right;verticalLabelPosition=middle;verticalAlign=middle;align=left;fillColor=#09555B;shape=mxgraph.azure.code_file;labelBackgroundColor=none;fontColor=#396C82;" vertex="1" parent="KYEmgtriEI6HAVW3Ymfa-74">
          <mxGeometry x="200" y="149.97000000000003" width="47" height="50" as="geometry" />
        </mxCell>
        <mxCell id="KYEmgtriEI6HAVW3Ymfa-33" value="" style="shape=image;imageAspect=0;aspect=fixed;verticalLabelPosition=bottom;verticalAlign=top;image=https://www.leixue.com/uploads/2019/05/PostgreSQL-LOGO.png;whiteSpace=wrap;labelBackgroundColor=none;fillColor=#09555B;strokeColor=#BAC8D3;fontColor=#396C82;" vertex="1" parent="KYEmgtriEI6HAVW3Ymfa-74">
          <mxGeometry x="625.06" y="144.5" width="74.94" height="50" as="geometry" />
        </mxCell>
        <mxCell id="KYEmgtriEI6HAVW3Ymfa-35" value="" style="shape=image;imageAspect=0;aspect=fixed;verticalLabelPosition=bottom;verticalAlign=top;strokeColor=#BAC8D3;fontColor=#EEEEEE;fillColor=#09555B;image=https://www.ddplanet.ru/images/services/technologies/apacheAirflow.png;labelBackgroundColor=none;" vertex="1" parent="KYEmgtriEI6HAVW3Ymfa-74">
          <mxGeometry x="192" y="340" width="147.47" height="57" as="geometry" />
        </mxCell>
        <mxCell id="KYEmgtriEI6HAVW3Ymfa-39" value="Yandex Cloud S3 Bucket" style="sketch=0;aspect=fixed;pointerEvents=1;shadow=0;dashed=0;html=1;strokeColor=none;labelPosition=center;verticalLabelPosition=bottom;verticalAlign=top;align=center;fillColor=#09555B;shape=mxgraph.mscae.enterprise.storage;fontColor=#396C82;labelBackgroundColor=none;" vertex="1" parent="KYEmgtriEI6HAVW3Ymfa-74">
          <mxGeometry x="413.5" y="170.5" width="65" height="53.3" as="geometry" />
        </mxCell>
        <mxCell id="KYEmgtriEI6HAVW3Ymfa-44" value="Managed Service for PostgreSQL" style="sketch=0;aspect=fixed;pointerEvents=1;shadow=0;dashed=0;html=1;strokeColor=none;labelPosition=center;verticalLabelPosition=bottom;verticalAlign=top;align=center;fillColor=#09555B;shape=mxgraph.mscae.enterprise.database_server;fontColor=#396C82;labelBackgroundColor=none;whiteSpace=wrap;" vertex="1" parent="KYEmgtriEI6HAVW3Ymfa-74">
          <mxGeometry x="611" y="165.5" width="38" height="50" as="geometry" />
        </mxCell>
        <mxCell id="KYEmgtriEI6HAVW3Ymfa-53" value="External Source" style="text;html=1;strokeColor=none;fillColor=none;align=center;verticalAlign=middle;whiteSpace=wrap;rounded=0;fontColor=#396C82;fontStyle=1;fontSize=15;" vertex="1" parent="KYEmgtriEI6HAVW3Ymfa-74">
          <mxGeometry x="25" y="40" width="90" height="30" as="geometry" />
        </mxCell>
        <mxCell id="KYEmgtriEI6HAVW3Ymfa-58" value="Data Ingestion" style="text;html=1;strokeColor=none;fillColor=none;align=center;verticalAlign=middle;whiteSpace=wrap;rounded=0;fontColor=#396C82;fontStyle=1;fontSize=15;" vertex="1" parent="KYEmgtriEI6HAVW3Ymfa-74">
          <mxGeometry x="193.5" y="100" width="150" height="30" as="geometry" />
        </mxCell>
        <mxCell id="KYEmgtriEI6HAVW3Ymfa-59" value="Data Storage" style="text;html=1;strokeColor=none;fillColor=none;align=center;verticalAlign=middle;whiteSpace=wrap;rounded=0;fontColor=#396C82;fontStyle=1;fontSize=15;" vertex="1" parent="KYEmgtriEI6HAVW3Ymfa-74">
          <mxGeometry x="370" y="100" width="150" height="30" as="geometry" />
        </mxCell>
        <mxCell id="KYEmgtriEI6HAVW3Ymfa-60" value="Data Warehouse" style="text;html=1;strokeColor=none;fillColor=none;align=center;verticalAlign=middle;whiteSpace=wrap;rounded=0;fontColor=#396C82;fontStyle=1;fontSize=15;" vertex="1" parent="KYEmgtriEI6HAVW3Ymfa-74">
          <mxGeometry x="550" y="100" width="150" height="30" as="geometry" />
        </mxCell>
        <mxCell id="KYEmgtriEI6HAVW3Ymfa-66" value="BI reporting" style="text;html=1;strokeColor=none;fillColor=none;align=center;verticalAlign=middle;whiteSpace=wrap;rounded=0;fontColor=#396C82;fontStyle=1;fontSize=15;" vertex="1" parent="KYEmgtriEI6HAVW3Ymfa-74">
          <mxGeometry x="765" y="26" width="150" height="30" as="geometry" />
        </mxCell>
        <mxCell id="KYEmgtriEI6HAVW3Ymfa-67" style="edgeStyle=orthogonalEdgeStyle;rounded=0;orthogonalLoop=1;jettySize=auto;html=1;exitX=1;exitY=0.5;exitDx=0;exitDy=0;entryX=0.013;entryY=0.357;entryDx=0;entryDy=0;entryPerimeter=0;strokeColor=#0B4D6A;strokeWidth=2;" edge="1" parent="KYEmgtriEI6HAVW3Ymfa-74" source="KYEmgtriEI6HAVW3Ymfa-51" target="KYEmgtriEI6HAVW3Ymfa-55">
          <mxGeometry relative="1" as="geometry" />
        </mxCell>
        <mxCell id="KYEmgtriEI6HAVW3Ymfa-68" style="edgeStyle=orthogonalEdgeStyle;rounded=0;orthogonalLoop=1;jettySize=auto;html=1;exitX=0.5;exitY=1;exitDx=0;exitDy=0;exitPerimeter=0;entryX=0;entryY=0.5;entryDx=0;entryDy=0;entryPerimeter=0;strokeColor=#0B4D6A;" edge="1" parent="KYEmgtriEI6HAVW3Ymfa-74" source="KYEmgtriEI6HAVW3Ymfa-8" target="KYEmgtriEI6HAVW3Ymfa-41">
          <mxGeometry relative="1" as="geometry" />
        </mxCell>
        <mxCell id="KYEmgtriEI6HAVW3Ymfa-70" style="edgeStyle=orthogonalEdgeStyle;rounded=0;orthogonalLoop=1;jettySize=auto;html=1;exitX=0;exitY=0.5;exitDx=0;exitDy=0;exitPerimeter=0;entryX=1;entryY=0.5;entryDx=0;entryDy=0;entryPerimeter=0;strokeColor=#0B4D6A;" edge="1" parent="KYEmgtriEI6HAVW3Ymfa-74" source="KYEmgtriEI6HAVW3Ymfa-40" target="KYEmgtriEI6HAVW3Ymfa-42">
          <mxGeometry relative="1" as="geometry" />
        </mxCell>
        <mxCell id="KYEmgtriEI6HAVW3Ymfa-71" value="DAGs" style="text;html=1;strokeColor=none;fillColor=none;align=center;verticalAlign=middle;whiteSpace=wrap;rounded=0;fontColor=#396C82;fontStyle=1;fontSize=12;" vertex="1" parent="KYEmgtriEI6HAVW3Ymfa-74">
          <mxGeometry x="439" y="337" width="75" height="30" as="geometry" />
        </mxCell>
        <mxCell id="KYEmgtriEI6HAVW3Ymfa-72" value="VM Superset" style="sketch=0;aspect=fixed;pointerEvents=1;shadow=0;dashed=0;html=1;strokeColor=none;labelPosition=center;verticalLabelPosition=bottom;verticalAlign=top;align=center;fillColor=#09555B;shape=mxgraph.azure.virtual_machine_feature;fontColor=#396C82;labelBackgroundColor=none;" vertex="1" parent="KYEmgtriEI6HAVW3Ymfa-74">
          <mxGeometry x="885.14" y="190" width="50" height="45" as="geometry" />
        </mxCell>
        <mxCell id="KYEmgtriEI6HAVW3Ymfa-73" style="edgeStyle=orthogonalEdgeStyle;rounded=0;orthogonalLoop=1;jettySize=auto;html=1;exitX=0.5;exitY=0;exitDx=0;exitDy=0;exitPerimeter=0;entryX=0.85;entryY=1;entryDx=0;entryDy=0;entryPerimeter=0;strokeColor=#0B4D6A;" edge="1" parent="KYEmgtriEI6HAVW3Ymfa-74" source="KYEmgtriEI6HAVW3Ymfa-72" target="KYEmgtriEI6HAVW3Ymfa-46">
          <mxGeometry relative="1" as="geometry" />
        </mxCell>
      </root>
    </mxGraphModel>
  </diagram>
</mxfile>
